<?xml version="1.0" encoding="UTF-8"?>
<!DOCTYPE svg PUBLIC "-//W3C//DTD SVG 1.1//EN" "http://www.w3.org/Graphics/SVG/1.1/DTD/svg11.dtd">
<!-- Creator: CorelDRAW -->
<svg xmlns="http://www.w3.org/2000/svg" xml:space="preserve" width="47.4133mm" height="47.4133mm" version="1.1" style="shape-rendering:geometricPrecision; text-rendering:geometricPrecision; image-rendering:optimizeQuality; fill-rule:evenodd; clip-rule:evenodd"
viewBox="0 0 717.73 717.73"
 xmlns:xlink="http://www.w3.org/1999/xlink"
 xmlns:xodm="http://www.corel.com/coreldraw/odm/2003">
 <defs>
  <style type="text/css">
   <![CDATA[
    .fil0 {fill:white}
   ]]>
  </style>
 </defs>
 <g id="Layer_x0020_1">
  <metadata id="CorelCorpID_0Corel-Layer"/>
  <path class="fil0" d="M60.29 0l597.15 0c33.16,0 60.29,27.13 60.29,60.29l0 597.15c0,33.16 -27.13,60.29 -60.29,60.29l-597.15 0c-33.16,0 -60.29,-27.13 -60.29,-60.29l0 -597.15c0,-33.16 27.13,-60.29 60.29,-60.29zm480.57 538.84c8.22,-43.37 18.42,-87.37 27.63,-130.4 10.03,-46.83 31.2,-96.67 -28.93,-105.18 -22.73,-3.22 -156.92,-0.72 -196.33,-1.31 -12.12,-0.18 -9.1,-3.96 -15.08,24.22 -4.55,21.45 -10.33,44.23 -13.97,65.77l106.35 -0.02c1.96,-0.02 5.5,-0.18 7.29,-0 1.68,0.16 1.46,-0.05 3.08,0.59 8.32,3.26 -0.91,33 -3.41,40.06l-167.24 -0.15c-12.24,-1.62 -4.61,-18.47 -2.37,-29.3l22.28 -104.37c6.15,-28.87 -0.57,-24.27 60.72,-24.27 20.58,0 243.47,1.03 252.6,-0.39l23 -106.56c-111.26,-0.03 -222.39,-0.03 -333.52,-0.03 -36.67,0 -72.87,-1.23 -103.14,21.15 -10.17,7.51 -12.8,10.93 -20.51,21.71 -15.23,21.31 -28.28,99.05 -35.22,132.6 -4.72,22.84 -9.55,45.58 -14.55,68.7 -4.15,19.2 -12.82,51.63 -12.49,70.82 0.97,56.79 57.29,56.69 109.88,56.69 25.52,0 317.29,1.46 333.93,-0.33z"/>
 </g>
</svg>
