<?xml version="1.0" encoding="UTF-8"?>
<!DOCTYPE svg PUBLIC "-//W3C//DTD SVG 1.1//EN" "http://www.w3.org/Graphics/SVG/1.1/DTD/svg11.dtd">
<!-- Creator: CorelDRAW -->
<svg xmlns="http://www.w3.org/2000/svg" xml:space="preserve" width="231.65mm" height="102.356mm" version="1.1" style="shape-rendering:geometricPrecision; text-rendering:geometricPrecision; image-rendering:optimizeQuality; fill-rule:evenodd; clip-rule:evenodd"
viewBox="0 0 10787.33 4766.44"
 xmlns:xlink="http://www.w3.org/1999/xlink"
 xmlns:xodm="http://www.corel.com/coreldraw/odm/2003">
 <defs>
  <style type="text/css">
   <![CDATA[
    .fil0 {fill:white}
   ]]>
  </style>
 </defs>
 <g id="Layer_x0020_1">
  <metadata id="CorelCorpID_0Corel-Layer"/>
  <g id="_2911205506720">
   <path class="fil0" d="M4475.17 0l1837 0c102.01,0 185.46,83.45 185.46,185.45l0 1837c0,102.01 -83.45,185.46 -185.46,185.46l-1837 0c-102.01,0 -185.46,-83.45 -185.46,-185.46l0 -1837c0,-102.01 83.45,-185.45 185.46,-185.45zm1478.35 1657.62c25.27,-133.42 56.66,-268.76 85,-401.14 30.85,-144.07 95.97,-297.38 -89,-323.56 -69.93,-9.9 -482.71,-2.22 -603.96,-4.02 -37.29,-0.55 -28,-12.17 -46.4,74.5 -14.01,65.99 -31.76,136.06 -42.98,202.34l327.17 -0.07c6.03,-0.05 16.91,-0.54 22.41,-0.01 5.16,0.5 4.49,-0.14 9.46,1.81 25.58,10.04 -2.8,101.53 -10.49,123.23l-514.47 -0.45c-37.64,-4.99 -14.18,-56.82 -7.28,-90.14l68.54 -321.07c18.92,-88.82 -1.76,-74.65 186.78,-74.65 63.31,0 748.98,3.17 777.07,-1.21l70.74 -327.81c-342.27,-0.09 -684.13,-0.09 -1025.99,-0.09 -112.81,0 -224.15,-3.79 -317.28,65.07 -31.27,23.12 -39.39,33.63 -63.09,66.78 -46.84,65.56 -86.99,304.72 -108.34,407.92 -14.53,70.25 -29.38,140.22 -44.75,211.33 -12.77,59.05 -39.44,158.84 -38.43,217.85 2.98,174.7 176.23,174.39 338.02,174.39 78.5,0 976.05,4.48 1027.26,-1z"/>
   <g>
    <path class="fil0" d="M1450.12 3736.43c26.84,-141.7 60.18,-285.46 90.28,-426.05 32.76,-153.03 101.93,-315.85 -94.53,-343.67 -74.28,-10.51 -512.7,-2.36 -641.48,-4.27 -39.61,-0.59 -29.74,-12.93 -49.28,79.13 -14.87,70.08 -33.73,144.51 -45.65,214.91l347.5 -0.07c6.39,-0.06 17.96,-0.58 23.8,-0.01 5.47,0.53 4.78,-0.15 10.05,1.91 27.18,10.66 -2.98,107.84 -11.13,130.88l-546.43 -0.47c-39.98,-5.29 -15.06,-60.35 -7.73,-95.74l72.79 -341c20.09,-94.34 -1.86,-79.29 198.39,-79.29 67.24,0 795.5,3.37 825.34,-1.28l75.13 -348.18c-363.53,-0.09 -726.62,-0.09 -1089.72,-0.09 -119.82,0 -238.07,-4.03 -336.98,69.11 -33.21,24.55 -41.83,35.72 -67,70.94 -49.75,69.63 -92.4,323.64 -115.08,433.26 -15.44,74.61 -31.2,148.93 -47.53,224.45 -13.56,62.72 -41.89,168.7 -40.82,231.38 3.17,185.56 187.19,185.22 359.02,185.22 83.37,0 1036.68,4.76 1091.07,-1.06z"/>
    <path class="fil0" d="M3295.94 3737.49l421.85 -0.02 164.75 -779.58c11.77,10.21 63.02,107.27 75.42,129.76l223.15 403.78c59.75,105.84 87.82,198.26 182.89,231.17 62.85,21.75 324.31,20.38 398.74,11.08 218.59,-27.33 238.23,-196.1 270.74,-352.42 12.04,-57.87 23.88,-115.1 36.58,-172.43 50.42,-227.53 93.9,-457.58 144.93,-684.21l-420.19 -1.5 -164.92 780.49c-13.68,-13 -335.09,-603.64 -371.11,-666.57 -27.44,-47.94 -52.53,-78.59 -110.37,-98.52 -64.05,-22.07 -321.55,-21.15 -398.47,-11.54 -126.25,15.77 -195.83,81.28 -232.27,181.99 -17.53,48.47 -29.15,115.84 -39.9,168.95 -11.64,57.47 -24.61,114.55 -36.59,172.36 -23.87,115.11 -48.16,226.82 -72.44,341.7 -23.94,113.22 -53.88,232.71 -72.78,345.53z"/>
    <path class="fil0" d="M5159.82 3737.41l1486.79 0.07 72.66 -348.03 -1005.87 -0.25c-0.36,-15.36 20.99,-119.1 27.45,-131.67l757.95 -1.05c8.19,-53.45 61.89,-268.62 60.51,-293.91l-755.38 0 16.67 -89.03 1007.17 -0.86 75.69 -348.75 -1486.64 -0.8 -257.01 1214.27z"/>
    <path class="fil0" d="M1646.88 3737.41l1486.78 0.07 72.66 -348.03 -1005.87 -0.25c-0.39,-16.62 20.35,-117.84 27.44,-131.67l757.95 -1.05 62.38 -293.51 -758.23 -0.4 17.6 -89.04 1007.23 -0.85 75.73 -348.74 -1486.68 -0.81 -256.99 1214.27z"/>
    <path class="fil0" d="M6855.94 3389.2l-72.32 348.22c278.23,0.08 556.09,0.08 833.96,0.08 253.05,0 536.34,47.9 667.37,-168.54 44.69,-73.81 72.59,-229.58 90.96,-326.48 27.13,-143.14 -28.2,-230.3 -142.6,-262.79 -100.02,-28.41 -464.68,-17.12 -607.83,-17.12 -34.17,0 -68.34,0 -102.51,0 -17.09,0 -34.18,-0.03 -51.28,0.07 -7.75,0.05 -20.56,0.56 -27.81,-0.49 -31.17,-4.51 -25.23,-29.19 -15.79,-60.8 13.53,-45.27 91.17,-28.67 173.73,-28.67l803.17 0 75.87 -348.91c-86.76,-4.65 -184.27,-0.63 -271.87,-0.63 -272.95,0 -557.8,-3.66 -827.97,0.09 -82.3,1.14 -165.11,13.74 -229.02,46.94 -146.13,75.89 -167.09,197.26 -199.19,352.52 -15.85,76.68 -33.31,166.22 9.33,232.19 80.42,124.41 274.44,101.61 446.48,101.61l413.98 -0c69.36,-0.05 80.85,-10.12 65.47,61.67 -18.47,86.23 -3.2,71.04 -203.46,71.04 -276.22,0 -552.44,0 -828.66,0z"/>
    <path class="fil0" d="M9162.42 3389.2l-72.32 348.22c278.23,0.07 556.09,0.07 833.95,0.07 121,0 297.15,10.03 410.54,-7.59 278.76,-43.31 303.39,-253.18 347.78,-487.43 27.13,-143.14 -28.2,-230.3 -142.6,-262.79 -99.93,-28.38 -464.69,-17.12 -607.83,-17.12 -34.17,0 -68.34,0 -102.51,0 -89.31,0 -117,12.79 -94.88,-61.21 13.53,-45.27 91.17,-28.67 173.73,-28.67 267.73,0 535.45,0 803.18,0l75.87 -348.91c-86.76,-4.65 -184.27,-0.63 -271.87,-0.63 -272.98,0 -557.72,-3.64 -827.97,0.09 -152.85,2.1 -297.89,44.82 -367.38,184.52 -33.38,67.1 -44.69,136.87 -60.83,214.94 -15.82,76.52 -33.33,166.19 9.33,232.19 80.41,124.4 274.43,101.61 446.48,101.61l413.98 -0c68.63,-0.05 80.99,-10.2 65.69,61.41 -18.53,86.77 -4.45,71.31 -203.69,71.31 -276.22,0 -552.44,0 -828.66,0z"/>
    <polygon class="fil0" points="8436.22,3737.41 8914.9,3737.49 9171.93,2523.24 8693.21,2523.14 "/>
   </g>
   <g>
    <path class="fil0" d="M3871.49 4057.03c-211.79,0 -423.57,0 -635.36,0 -74.12,0 -137.7,-2.23 -196.61,42.38 -54.13,40.99 -61.9,91.15 -76.32,160.91 -8.97,43.4 -18.66,87.32 -27.67,130.92 -10.79,52.22 -52.15,226.22 -51.49,265.49 1.96,116.46 129.44,107.72 209.04,107.72 210.91,0 424.24,3.17 634.85,-0.08 5.88,-34.16 14.58,-69.56 21.87,-103.68l43.48 -205.17c14.75,-68.19 27.92,-134.63 -84.81,-141.69 -31.59,-1.98 -372.39,-0.67 -372.39,-0.67 -6.46,4.75 -9.6,32.29 -11.63,41.77 -7.41,34.59 -23.52,100.78 -27.6,129.26l176.4 0.03c15.61,0 41.97,-3.96 52.11,4.64 3.31,14.17 -9.54,55.92 -11.83,72.67l-253.88 0c-18.81,0 -72.11,3.98 -77.89,-6.77 -1.56,-2.88 53.01,-281.2 62.93,-289.3 9.96,-8.13 92.68,-4.7 112.94,-4.7 156.91,0 313.82,0 470.61,-0.02l43.26 -203.71z"/>
    <path class="fil0" d="M4207.14 4355.31l20.82 -98.53c86.22,-3.5 211.92,-0.24 305.42,-0.25 56.96,-0 48.57,-0.93 37.33,51.55 -10.23,47.77 -2.37,47.23 -54.96,47.22l-308.6 0zm433.3 169.79c63.89,-6.04 105.09,-26.9 138.65,-59.71 35.6,-34.8 48.25,-73.53 61.2,-134.69 20.37,-96.28 73.79,-234.68 -69.34,-266.2 -55.1,-12.14 -131.94,-7.47 -190.54,-7.47l-588.13 0.04 -149.8 707.32 275.46 0.05c5.68,-1.54 13,-47.55 15,-57.43 4.05,-20.02 8.49,-39.98 12.73,-59.87 8.04,-37.72 19.72,-82.25 25.19,-119.81l158.89 0.26 145.18 236.84 309.11 -0.16c2.33,-14.13 -5.7,-21.7 -12.57,-32.19l-131.02 -206.98z"/>
    <path class="fil0" d="M5236.47 4261.93c9.05,-3.48 261.21,-1.47 311.99,-1.68 13.52,-0.06 28.67,-1.14 28.94,14.13 0.16,8.78 -40.78,194.08 -46.3,219.75 -4.31,20.05 -6.68,59.14 -23.14,65.19 -11.04,4.06 -260.3,1.73 -312.24,1.92 -15.7,0.06 -30.72,2.84 -29.61,-14.08l31.4 -147.5c5.2,-24.24 10.27,-48.66 15.43,-72.57 2.69,-12.46 5.42,-24.83 7.93,-37.22 2.71,-13.32 4.18,-23.54 15.6,-27.95zm633.69 -61.85c16.15,-167.09 -169.46,-143.05 -280.56,-143.05 -71.2,0 -142.39,0 -213.6,0 -122.97,0 -282.41,-21.12 -365.6,61.6 -35.99,35.79 -50.4,85.26 -63.73,149.84 -8.8,42.62 -69.93,317.9 -73.54,351.34 -18.21,168.8 169.58,144.63 281.43,144.63 71.2,0 142.4,0 213.6,0 87.78,0 224.53,11.39 301.19,-20.18 87.12,-35.89 108.87,-100.46 127.34,-192.11 8.78,-43.54 70.38,-320.09 73.47,-352.07z"/>
    <path class="fil0" d="M7262.21 4260.28c70.18,0 140.37,0 210.55,0 164.97,0 146.22,-12.32 131.4,59.48 -9.4,45.55 -2.24,54.77 -51.07,54.71l-314.73 -0.06 23.83 -114.13zm-65.14 310.77c85.53,-2.84 175.91,-0.16 261.97,-0.16 75.46,0 183.9,6.7 252.89,-10.19 69,-16.89 117.19,-62.19 138.89,-123.63 11.86,-33.58 38.68,-168.73 47.77,-212.97 18.13,-88.31 -16.84,-142.99 -92.24,-159.61 -41.18,-9.08 -81.23,-7.46 -123.93,-7.46l-654.76 0.04 -149.59 707.37 275.26 0c6.04,-3.53 6.24,-16.23 7.8,-23.54 11.42,-53.07 23.67,-121.47 35.92,-169.85z"/>
    <path class="fil0" d="M6636.02 4057.03c-7.89,4.58 -9.01,28.91 -10.9,37.97l-59.74 281.2c-11.51,53.71 -22.53,108.24 -34.32,161.68 -6.78,30.75 -22.7,23.35 -75.32,23.35l-194 0c-62.14,0 -79.74,7.48 -73.12,-22.79 11.69,-53.42 22.56,-106.49 33.99,-159.82 22.74,-106.05 48.2,-214.96 68.18,-321.58l-278.38 -0.01c-7.72,43.28 -18.43,88.81 -27.88,132.27l-84.18 395.9c-10.1,48.72 -19.91,92.48 7.44,131.5 44.6,63.63 191.75,47.74 271.65,47.74l319.42 0c76.24,0 201.34,9.39 255.04,-66.37 15.32,-21.62 18.52,-23.55 29.18,-51.15 13.29,-34.4 84.59,-381.4 100.37,-458.03 9.06,-44 20.42,-88.05 27.83,-131.86l-275.25 0z"/>
   </g>
   <g>
    <path class="fil0" d="M9062.17 2089.05c4.88,10.88 32.72,29.07 39.34,40.47 -1.89,6.88 -49.52,51.4 -55.42,57.31 -9.04,9.05 -50.2,52.22 -57.31,55.7 -8.83,-3.49 -78.35,-80.4 -84.08,-80.95 -4.21,-0.4 -23.97,21.4 -27.88,25.32l-175.59 174.95c-4.31,4.31 -11.03,8.75 -12.84,15.18 4.36,6.46 35.9,36.75 43.41,43.82 2.48,-1.25 0.02,0.45 2.77,-1.98 0.86,-0.76 1.91,-1.97 2.89,-3.01l144.03 -143.74c5.17,-5.15 16.6,-18.92 23.2,-21 5.53,0.31 75.39,78.43 85.26,82.58 9.84,-5.56 149.07,-150.44 158.69,-156.11 5.51,2.6 16.17,15.24 20.77,19.98 6.64,6.83 12.22,14 20.21,19.08 2.65,-11 14.48,-132.22 13.37,-140.42 -4.92,-2.23 -125.48,11 -140.83,12.82z"/>
    <path class="fil0" d="M9149.03 2491.2c0.29,-49.45 -0.31,-122.19 -0.34,-142.6l-0.36 -126.93c-5.07,1.28 -42.31,39.88 -48.38,46.26 -11.86,12.45 -14.54,8.82 -14.5,33.31l-0.15 189.97 63.74 0z"/>
    <path class="fil0" d="M8910.74 2301.34c-1.66,12.93 -0.87,127.12 -0.67,189.86l63.35 0 -0.01 -103.51c0,-15.53 2.54,-21.96 -6.69,-31.23 -6.39,-6.42 -12.07,-11.86 -18.47,-18.25l-37.51 -36.86z"/>
    <path class="fil0" d="M9060.52 2491.2l-0.35 -182.05c-4.14,0.14 -41.72,40.08 -49.71,48.11 -5.83,5.85 -12.55,9.33 -12.64,20.94l-0.17 112.99 62.87 0z"/>
    <path class="fil0" d="M8884.92 2313.9c-4.71,0.01 -38.73,36.78 -44.7,42.47 -6.28,5.98 -16.26,12.96 -18,25.76l-0.15 109.07 63.45 0c0.51,-63.38 0.37,-170.48 -0.6,-177.3z"/>
    <path class="fil0" d="M8797.5 2401.22c-5.28,0.76 -28.43,25.94 -33.85,31.35 -7.97,7.97 -28.97,25.43 -29.67,36.76 -0.15,2.45 -0.29,11.35 -0.35,21.87l64 0 -0.12 -89.98z"/>
   </g>
  </g>
 </g>
</svg>
